<?xml version="1.0" encoding="UTF-8" standalone="no"?>
<!-- Created with Inkscape (http://www.inkscape.org/) -->

<svg
   width="257.39865"
   height="90.415161"
   viewBox="0 0 257.39865 90.415161"
   version="1.1"
   id="SVGRoot"
   sodipodi:docname="/var/folders/t7/fby_1_gd12n7z3mxrkf285tc0000gn/T/ink_ext_XXXXXX.svgJGAA11"
   xmlns:inkscape="http://www.inkscape.org/namespaces/inkscape"
   xmlns:sodipodi="http://sodipodi.sourceforge.net/DTD/sodipodi-0.dtd"
   xmlns="http://www.w3.org/2000/svg"
   xmlns:svg="http://www.w3.org/2000/svg">
  <sodipodi:namedview
     id="namedview4217"
     pagecolor="#ffffff"
     bordercolor="#000000"
     borderopacity="0.25"
     inkscape:showpageshadow="2"
     inkscape:pageopacity="0.0"
     inkscape:pagecheckerboard="0"
     inkscape:deskcolor="#d1d1d1"
     inkscape:document-units="px"
     showgrid="true"
     inkscape:zoom="0.25"
     inkscape:cx="30.0"
     inkscape:cy="30.0"
     inkscape:window-width="1387"
     inkscape:window-height="1027"
     inkscape:window-x="61"
     inkscape:window-y="25"
     inkscape:window-maximized="0"
     inkscape:current-layer="layer1">
    <inkscape:grid
       type="xygrid"
       id="grid4223" />
  </sodipodi:namedview>
  <defs
     id="defs4212" />
  <g
     inkscape:label="Ebene 1"
     inkscape:groupmode="layer"
     id="layer1"
     transform="translate(-321.84451,-402.77634)">
    <g
       id="g818"
       inkscape:label="audilu"
       transform="matrix(3.7795276,0,0,3.7795276,249.18466,122.41401)">
      <path
         id="rect816"
         style="fill:#1abb97;stroke-width:0.309999;stroke-linecap:round;stroke-linejoin:round"
         inkscape:label="stroke"
         d="m 20.836535,95.651558 h 38.740634 c 0.616269,0 1.112399,0.49613 1.112399,1.112398 v 0.225182 c 0,0.616269 -0.49613,1.112399 -1.112399,1.112399 H 20.836535 c -0.616269,0 -1.112399,-0.49613 -1.112399,-1.112399 v -0.225182 c 0,-0.616268 0.49613,-1.112398 1.112399,-1.112398 z" />
      <g
         id="text814"
         style="font-size:24.2769px;font-family:Gugi;-inkscape-font-specification:Gugi;fill:#12182e;stroke-width:1.33331;stroke-linecap:round;stroke-linejoin:round"
         inkscape:label="ilu">
        <path
           d="m 66.158566,96.887696 q 0,1.165291 -1.33523,1.165291 -1.359506,0 -1.359506,-1.165291 v -12.52688 q 0,-1.165291 1.359506,-1.165291 1.33523,0 1.33523,1.165291 z M 66.66838,80.136635 q 0,0.776861 -0.534091,1.310953 -0.534092,0.534092 -1.310953,0.534092 -0.776861,0 -1.335229,-0.534092 -0.534092,-0.534092 -0.534092,-1.310953 0,-0.801137 0.534092,-1.335229 0.558368,-0.534092 1.335229,-0.534092 0.776861,0 1.310953,0.534092 0.534091,0.534092 0.534091,1.335229 z"
           id="path4264" />
        <path
           d="m 72.300595,96.960527 q 0,1.141014 -1.33523,1.141014 -1.359506,0 -1.359506,-1.141014 V 79.55399 q 0,-1.141014 1.359506,-1.141014 1.33523,0 1.33523,1.141014 z"
           id="path4266" />
        <path
           d="m 87.327969,94.047299 q 0,0.971076 -0.339877,1.72366 -0.339877,0.752583 -0.971076,1.213845 h 0.02428 q -0.606923,0.412707 -1.286676,0.679753 -0.679753,0.242769 -1.310952,0.242769 h -3.908581 q -0.606923,0 -1.310953,-0.242769 -0.679753,-0.267046 -1.286675,-0.679753 h 0.02428 q -0.6312,-0.461262 -0.971076,-1.213845 -0.339877,-0.752584 -0.339877,-1.72366 v -9.735037 q 0,-1.165291 1.33523,-1.165291 1.335229,0 1.335229,1.165291 v 9.540822 q 0,0.679753 0.339877,1.189568 0.315599,0.582645 1.310952,0.582645 h 3.034613 q 0.971076,0 1.286675,-0.582645 l -0.02428,0.02428 q 0.388431,-0.582646 0.388431,-1.213845 v -9.540822 q 0,-1.165291 1.335229,-1.165291 1.33523,0 1.33523,1.165291 z"
           id="path4268" />
      </g>
      <g
         id="text810"
         style="font-size:24.2769px;font-family:Gugi;-inkscape-font-specification:Gugi;fill:#12182e;stroke-width:1.33331;stroke-linecap:round;stroke-linejoin:round"
         inkscape:label="aud">
        <path
           d="m 23.157445,93.600716 q -0.752584,0 -1.432337,-0.194216 -0.679754,-0.218492 -1.310953,-0.606922 v 0.02428 q -1.189568,-0.752587 -1.189568,-2.76757 V 88.86672 q 0,-0.995353 0.339876,-1.72366 0.364154,-0.752583 0.995353,-1.189568 h -0.02428 q 0.606923,-0.412707 1.286676,-0.606922 0.679753,-0.218492 1.310953,-0.218492 h 5.365194 v -2.257752 q 0,-0.606922 -0.38843,-1.09246 -0.364153,-0.509815 -1.262399,-0.509815 h -2.840397 q -0.922522,0 -1.286676,0.461261 -0.339876,0.436984 -0.339876,1.043907 v 0.194215 q 0,1.262398 -1.359507,1.262398 -1.359506,0 -1.359506,-1.262398 v -0.218492 q 0,-0.995353 0.339877,-1.675106 0.364153,-0.679754 0.971076,-1.141015 h -0.02428 q 0.631199,-0.412707 1.310952,-0.679753 0.70403,-0.267046 1.33523,-0.267046 h 3.690088 q 0.606923,0 1.286676,0.267046 0.70403,0.267046 1.310953,0.679753 h -0.02428 q 0.631199,0.461261 0.971076,1.213845 0.339876,0.728307 0.339876,1.699383 v 9.735037 q 0,1.165291 -1.335229,1.165291 -0.267046,0 -0.509815,-0.02428 -0.218492,-0.02428 -0.412707,-0.121384 -0.169939,-0.121385 -0.291323,-0.3156 -0.09711,-0.218492 -0.09711,-0.558369 l -0.02428,-5.316641 h -4.903933 q -0.534092,0 -0.825415,0.121385 -0.291323,0.121384 -0.461261,0.38843 -0.194215,0.412707 -0.291323,0.655476 -0.07283,0.218493 -0.07283,0.509815 v 0.946799 q 0,0.6312 0.364153,0.971076 0.388431,0.3156 1.310953,0.3156 h 2.719012 q 0.898246,0 0.898246,1.141014 0,0.485538 -0.218492,0.825415 -0.218493,0.3156 -0.679754,0.3156 z"
           id="path4271" />
        <path
           d="m 45.977698,89.740689 q 0,0.971076 -0.339876,1.723659 -0.339877,0.752584 -0.971076,1.213845 h 0.02428 q -0.606923,0.412708 -1.286676,0.679754 -0.679753,0.242769 -1.310953,0.242769 h -3.90858 q -0.606923,0 -1.310953,-0.242769 -0.679753,-0.267046 -1.286676,-0.679754 h 0.02428 Q 34.980263,92.216932 34.640386,91.464348 34.30051,90.711765 34.30051,89.740689 v -9.735037 q 0,-1.165291 1.335229,-1.165291 1.33523,0 1.33523,1.165291 v 9.540821 q 0,0.679754 0.339876,1.189569 0.3156,0.582645 1.310953,0.582645 h 3.034612 q 0.971076,0 1.286676,-0.582645 l -0.02428,0.02428 q 0.38843,-0.582645 0.38843,-1.213845 v -9.540821 q 0,-1.165291 1.33523,-1.165291 1.335229,0 1.335229,1.165291 z"
           id="path4273" />
        <path
           d="m 58.019015,81.268051 h -4.685441 q -0.995353,0 -1.310953,0.582645 -0.339877,0.509815 -0.339877,1.189568 v 6.991747 q 0,0.6312 0.388431,0.971076 0.38843,0.3156 1.286676,0.3156 h 2.50052 q 0.873969,0 0.873969,1.141014 0,0.485538 -0.218493,0.825415 -0.194215,0.3156 -0.655476,0.3156 h -2.937505 q -1.529444,0 -2.719012,-0.776861 -1.189568,-0.728307 -1.189568,-2.767567 v -7.234516 q 0,-0.995353 0.315599,-1.72366 0.3156,-0.728307 0.995353,-1.189568 1.286676,-0.922522 2.573351,-0.922522 h 5.122426 v -3.641535 q 0,-1.165291 1.33523,-1.165291 1.335229,0 1.335229,1.165291 v 17.236599 q 0,1.165291 -1.335229,1.165291 -0.509815,0 -0.922522,-0.169938 -0.412708,-0.194215 -0.412708,-0.825415 z"
           id="path4275" />
      </g>
    </g>
  </g>
</svg>
